<svg xmlns="http://www.w3.org/2000/svg" width="383" height="149" viewBox="0 0 383 149" fill="none">
<path opacity="0.15" d="M43.2334 59.419C9.94255 59.419 0.0335693 106.773 0.0335693 106.773V139C0.0335693 144.523 4.51071 149 10.0336 149H372.225C377.748 149 382.225 144.523 382.225 139V0C382.225 0 365.453 25.0344 338.517 25.0344C311.58 25.0344 311.072 42.2267 281.341 42.2267C251.609 42.2267 258.978 0 227.468 0C195.957 0 196.211 33.1781 160.889 33.1781C125.567 33.1781 120.993 76.0081 92.2779 76.0081C63.5627 76.0081 76.5242 59.419 43.2334 59.419Z" fill="url(#paint0_linear_1016_1348)"/>
<defs>
<linearGradient id="paint0_linear_1016_1348" x1="191.129" y1="0" x2="191.585" y2="154.843" gradientUnits="userSpaceOnUse">
<stop offset="0.3125" stopColor="#0058B9"/>
<stop offset="1" stopColor="#00B9FF" stop-opacity="0"/>
</linearGradient>
</defs>
</svg>
